<svg xmlns="http://www.w3.org/2000/svg" viewBox="0 0 1365 582" width="100%" height="100%">
<defs><marker id="arrow" viewBox="0 0 10 10" refX="9" refY="5" markerWidth="7" markerHeight="7" orient="auto-start-reverse"><path d="M 0 0 L 10 5 L 0 10 z" fill="#555"/></marker></defs>
<rect x="0" y="0" width="513" height="72" rx="5" fill="#ffffff" stroke="#343a40" stroke-width="2"/>
<text x="256.5" y="42.8" text-anchor="middle" font-family="Arial, Noto Sans CJK SC, Microsoft YaHei, sans-serif" font-size="18" fill="#222">tensor device funcs (多维 elementwise + reshape 噪声)</text>
<rect x="603" y="0" width="200" height="72" rx="5" fill="#ffffff" stroke="#343a40" stroke-width="2"/>
<text x="703.0" y="42.8" text-anchor="middle" font-family="Arial, Noto Sans CJK SC, Microsoft YaHei, sans-serif" font-size="18" fill="#222">PropagateReshape</text>
<rect x="893" y="0" width="333" height="72" rx="5" fill="#ffffff" stroke="#343a40" stroke-width="2"/>
<text x="1059.5" y="42.8" text-anchor="middle" font-family="Arial, Noto Sans CJK SC, Microsoft YaHei, sans-serif" font-size="18" fill="#222">FlattenOps (Tidy, register-based)</text>
<rect x="0" y="162" width="387" height="72" rx="5" fill="#ffffff" stroke="#343a40" stroke-width="2"/>
<text x="193.5" y="204.8" text-anchor="middle" font-family="Arial, Noto Sans CJK SC, Microsoft YaHei, sans-serif" font-size="18" fill="#222">AutoVectorizeV2 + OutlineVectorFunction</text>
<rect x="477" y="162" width="396" height="72" rx="5" fill="#ffffff" stroke="#343a40" stroke-width="2"/>
<text x="675.0" y="204.8" text-anchor="middle" font-family="Arial, Noto Sans CJK SC, Microsoft YaHei, sans-serif" font-size="18" fill="#222">MergeVecScope L1 (enableVfMergeLevel==1)</text>
<rect x="963" y="162" width="378" height="72" rx="5" fill="#ffffff" stroke="#343a40" stroke-width="2"/>
<text x="1152.0" y="204.8" text-anchor="middle" font-family="Arial, Noto Sans CJK SC, Microsoft YaHei, sans-serif" font-size="18" fill="#222">TensorCopyInsertion + OneShotBufferize</text>
<rect x="0" y="324" width="396" height="72" rx="5" fill="#ffffff" stroke="#343a40" stroke-width="2"/>
<text x="198.0" y="366.8" text-anchor="middle" font-family="Arial, Noto Sans CJK SC, Microsoft YaHei, sans-serif" font-size="18" fill="#222">MergeVecScope L2 (enableVfMergeLevel==2)</text>
<rect x="486" y="324" width="200" height="72" rx="5" fill="#ffffff" stroke="#343a40" stroke-width="2"/>
<text x="586.0" y="366.8" text-anchor="middle" font-family="Arial, Noto Sans CJK SC, Microsoft YaHei, sans-serif" font-size="18" fill="#222">PreMarkStrideAlign</text>
<rect x="776" y="324" width="200" height="72" rx="5" fill="#ffffff" stroke="#343a40" stroke-width="2"/>
<text x="876.0" y="366.8" text-anchor="middle" font-family="Arial, Noto Sans CJK SC, Microsoft YaHei, sans-serif" font-size="18" fill="#222">MarkStrideAlign</text>
<rect x="1066" y="324" width="200" height="72" rx="5" fill="#ffffff" stroke="#343a40" stroke-width="2"/>
<text x="1166.0" y="366.8" text-anchor="middle" font-family="Arial, Noto Sans CJK SC, Microsoft YaHei, sans-serif" font-size="18" fill="#222">FoldAllocReshape</text>
<rect x="0" y="486" width="200" height="72" rx="5" fill="#ffffff" stroke="#343a40" stroke-width="2"/>
<text x="100.0" y="528.8" text-anchor="middle" font-family="Arial, Noto Sans CJK SC, Microsoft YaHei, sans-serif" font-size="18" fill="#222">EnableStrideAlign</text>
<rect x="290" y="486" width="432" height="72" rx="5" fill="#ffffff" stroke="#343a40" stroke-width="2"/>
<text x="506.0" y="528.8" text-anchor="middle" font-family="Arial, Noto Sans CJK SC, Microsoft YaHei, sans-serif" font-size="18" fill="#222">后端 lowering (decompose/layout/plan-memory)</text>
<line x1="513" y1="36.0" x2="603" y2="36.0" stroke="#343a40" stroke-width="2.5" marker-end="url(#arrow)"/>
<line x1="803" y1="36.0" x2="893" y2="36.0" stroke="#343a40" stroke-width="2.5" marker-end="url(#arrow)"/>
<line x1="893" y1="36.0" x2="387" y2="198.0" stroke="#343a40" stroke-width="2.5" marker-end="url(#arrow)"/>
<line x1="387" y1="198.0" x2="477" y2="198.0" stroke="#343a40" stroke-width="2.5" marker-end="url(#arrow)"/>
<line x1="873" y1="198.0" x2="963" y2="198.0" stroke="#343a40" stroke-width="2.5" marker-end="url(#arrow)"/>
<line x1="963" y1="198.0" x2="396" y2="360.0" stroke="#343a40" stroke-width="2.5" marker-end="url(#arrow)"/>
<line x1="963" y1="198.0" x2="686" y2="360.0" stroke="#343a40" stroke-width="2.5" marker-end="url(#arrow)"/>
<rect x="762.3" y="253.0" width="124.4" height="23.2" fill="#fff"/>
<text x="824.5" y="270.6" text-anchor="middle" font-family="Arial, Noto Sans CJK SC, Microsoft YaHei, sans-serif" font-size="16" fill="#555">L1 未选时直达</text>
<line x1="396" y1="360.0" x2="486" y2="360.0" stroke="#343a40" stroke-width="2.5" marker-end="url(#arrow)"/>
<line x1="686" y1="360.0" x2="776" y2="360.0" stroke="#343a40" stroke-width="2.5" marker-end="url(#arrow)"/>
<line x1="976" y1="360.0" x2="1066" y2="360.0" stroke="#343a40" stroke-width="2.5" marker-end="url(#arrow)"/>
<line x1="1066" y1="360.0" x2="200" y2="522.0" stroke="#343a40" stroke-width="2.5" marker-end="url(#arrow)"/>
<line x1="200" y1="522.0" x2="290" y2="522.0" stroke="#343a40" stroke-width="2.5" marker-end="url(#arrow)"/>
</svg>