<svg xmlns="http://www.w3.org/2000/svg" viewBox="0 0 429 1230" width="100%" height="100%">
<defs><marker id="arrow" viewBox="0 0 10 10" refX="9" refY="5" markerWidth="7" markerHeight="7" orient="auto-start-reverse"><path d="M 0 0 L 10 5 L 0 10 z" fill="#555"/></marker></defs>
<rect x="0" y="0" width="270" height="72" rx="5" fill="#ffffff" stroke="#343a40" stroke-width="2"/>
<text x="135.0" y="42.8" text-anchor="middle" font-family="Arial, Noto Sans CJK SC, Microsoft YaHei, sans-serif" font-size="18" fill="#222">多维 tensor elementwise 链</text>
<rect x="0" y="162" width="369" height="72" rx="5" fill="#ffffff" stroke="#343a40" stroke-width="2"/>
<text x="184.5" y="204.8" text-anchor="middle" font-family="Arial, Noto Sans CJK SC, Microsoft YaHei, sans-serif" font-size="18" fill="#222">1-D elementwise(collapse/expand 包裹)</text>
<rect x="0" y="324" width="405" height="72" rx="5" fill="#ffffff" stroke="#343a40" stroke-width="2"/>
<text x="202.5" y="366.8" text-anchor="middle" font-family="Arial, Noto Sans CJK SC, Microsoft YaHei, sans-serif" font-size="18" fill="#222">hivm.vector_function callees + call sites</text>
<rect x="0" y="486" width="369" height="72" rx="5" fill="#ffffff" stroke="#343a40" stroke-width="2"/>
<text x="184.5" y="528.8" text-anchor="middle" font-family="Arial, Noto Sans CJK SC, Microsoft YaHei, sans-serif" font-size="18" fill="#222">合并后的 VF 调用图(tensor 级,L1 可选)</text>
<rect x="0" y="648" width="252" height="72" rx="5" fill="#ffffff" stroke="#343a40" stroke-width="2"/>
<text x="126.0" y="690.8" text-anchor="middle" font-family="Arial, Noto Sans CJK SC, Microsoft YaHei, sans-serif" font-size="18" fill="#222">memref IR(tensor→memref)</text>
<rect x="0" y="810" width="369" height="72" rx="5" fill="#ffffff" stroke="#343a40" stroke-width="2"/>
<text x="184.5" y="852.8" text-anchor="middle" font-family="Arial, Noto Sans CJK SC, Microsoft YaHei, sans-serif" font-size="18" fill="#222">合并后的 VF 调用图(memref 级,L2 可选)</text>
<rect x="0" y="972" width="306" height="72" rx="5" fill="#ffffff" stroke="#343a40" stroke-width="2"/>
<text x="153.0" y="1014.8" text-anchor="middle" font-family="Arial, Noto Sans CJK SC, Microsoft YaHei, sans-serif" font-size="18" fill="#222">带 storage_align 标注的 memref</text>
<rect x="0" y="1134" width="279" height="72" rx="5" fill="#ffffff" stroke="#343a40" stroke-width="2"/>
<text x="139.5" y="1176.8" text-anchor="middle" font-family="Arial, Noto Sans CJK SC, Microsoft YaHei, sans-serif" font-size="18" fill="#222">对齐分配 + strided 逻辑视图</text>
<line x1="135.0" y1="72" x2="184.5" y2="162" stroke="#343a40" stroke-width="2.5" marker-end="url(#arrow)"/>
<rect x="23.1" y="91.0" width="273.2" height="23.2" fill="#fff"/>
<text x="159.8" y="108.6" text-anchor="middle" font-family="Arial, Noto Sans CJK SC, Microsoft YaHei, sans-serif" font-size="16" fill="#555">PropagateReshape + FlattenOps</text>
<line x1="184.5" y1="234" x2="202.5" y2="324" stroke="#343a40" stroke-width="2.5" marker-end="url(#arrow)"/>
<rect x="12.9" y="253.0" width="361.2" height="23.2" fill="#fff"/>
<text x="193.5" y="270.6" text-anchor="middle" font-family="Arial, Noto Sans CJK SC, Microsoft YaHei, sans-serif" font-size="16" fill="#555">AutoVectorizeV2 + OutlineVectorFunction</text>
<line x1="202.5" y1="396" x2="184.5" y2="486" stroke="#343a40" stroke-width="2.5" marker-end="url(#arrow)"/>
<rect x="89.3" y="415.0" width="208.4" height="23.2" fill="#fff"/>
<text x="193.5" y="432.6" text-anchor="middle" font-family="Arial, Noto Sans CJK SC, Microsoft YaHei, sans-serif" font-size="16" fill="#555">MergeVecScope L1(可选)</text>
<line x1="202.5" y1="396" x2="126.0" y2="648" stroke="#343a40" stroke-width="2.5" marker-end="url(#arrow)"/>
<rect x="97.7" y="496.0" width="133.2" height="23.2" fill="#fff"/>
<text x="164.2" y="513.6" text-anchor="middle" font-family="Arial, Noto Sans CJK SC, Microsoft YaHei, sans-serif" font-size="16" fill="#555">未选 L1 时直达</text>
<line x1="184.5" y1="558" x2="126.0" y2="648" stroke="#343a40" stroke-width="2.5" marker-end="url(#arrow)"/>
<rect x="75.8" y="577.0" width="158.8" height="23.2" fill="#fff"/>
<text x="155.2" y="594.6" text-anchor="middle" font-family="Arial, Noto Sans CJK SC, Microsoft YaHei, sans-serif" font-size="16" fill="#555">OneShotBufferize</text>
<line x1="126.0" y1="720" x2="184.5" y2="810" stroke="#343a40" stroke-width="2.5" marker-end="url(#arrow)"/>
<rect x="51.0" y="739.0" width="208.4" height="23.2" fill="#fff"/>
<text x="155.2" y="756.6" text-anchor="middle" font-family="Arial, Noto Sans CJK SC, Microsoft YaHei, sans-serif" font-size="16" fill="#555">MergeVecScope L2(可选)</text>
<line x1="126.0" y1="720" x2="153.0" y2="972" stroke="#343a40" stroke-width="2.5" marker-end="url(#arrow)"/>
<rect x="72.9" y="820.0" width="133.2" height="23.2" fill="#fff"/>
<text x="139.5" y="837.6" text-anchor="middle" font-family="Arial, Noto Sans CJK SC, Microsoft YaHei, sans-serif" font-size="16" fill="#555">未选 L2 时直达</text>
<line x1="184.5" y1="882" x2="153.0" y2="972" stroke="#343a40" stroke-width="2.5" marker-end="url(#arrow)"/>
<rect x="93.8" y="901.0" width="150.0" height="23.2" fill="#fff"/>
<text x="168.8" y="918.6" text-anchor="middle" font-family="Arial, Noto Sans CJK SC, Microsoft YaHei, sans-serif" font-size="16" fill="#555">MarkStrideAlign</text>
<line x1="153.0" y1="1044" x2="139.5" y2="1134" stroke="#343a40" stroke-width="2.5" marker-end="url(#arrow)"/>
<rect x="62.4" y="1063.0" width="167.6" height="23.2" fill="#fff"/>
<text x="146.2" y="1080.6" text-anchor="middle" font-family="Arial, Noto Sans CJK SC, Microsoft YaHei, sans-serif" font-size="16" fill="#555">EnableStrideAlign</text>
</svg>