<svg xmlns="http://www.w3.org/2000/svg" viewBox="0 0 865 420" width="100%" height="100%">
<defs><marker id="arrow" viewBox="0 0 10 10" refX="9" refY="5" markerWidth="7" markerHeight="7" orient="auto-start-reverse"><path d="M 0 0 L 10 5 L 0 10 z" fill="#555"/></marker></defs>
<rect x="0" y="0" width="200" height="72" rx="5" fill="#ffffff" stroke="#343a40" stroke-width="2"/>
<text x="100.0" y="42.8" text-anchor="middle" font-family="Arial, Noto Sans CJK SC, Microsoft YaHei, sans-serif" font-size="18" fill="#222">PropagateReshape</text>
<rect x="290" y="0" width="200" height="72" rx="5" fill="#ffffff" stroke="#343a40" stroke-width="2"/>
<text x="390.0" y="42.8" text-anchor="middle" font-family="Arial, Noto Sans CJK SC, Microsoft YaHei, sans-serif" font-size="18" fill="#222">FlattenOps</text>
<rect x="580" y="0" width="261" height="72" rx="5" fill="#ffffff" stroke="#343a40" stroke-width="2"/>
<text x="710.5" y="42.8" text-anchor="middle" font-family="Arial, Noto Sans CJK SC, Microsoft YaHei, sans-serif" font-size="18" fill="#222">AutoVectorizeV2 + Outline</text>
<rect x="0" y="162" width="207" height="72" rx="5" fill="#ffffff" stroke="#343a40" stroke-width="2"/>
<text x="103.5" y="204.8" text-anchor="middle" font-family="Arial, Noto Sans CJK SC, Microsoft YaHei, sans-serif" font-size="18" fill="#222">MergeVecScope L1/L2</text>
<rect x="297" y="162" width="200" height="72" rx="5" fill="#ffffff" stroke="#343a40" stroke-width="2"/>
<text x="397.0" y="204.8" text-anchor="middle" font-family="Arial, Noto Sans CJK SC, Microsoft YaHei, sans-serif" font-size="18" fill="#222">OneShotBufferize</text>
<rect x="587" y="162" width="200" height="72" rx="5" fill="#ffffff" stroke="#343a40" stroke-width="2"/>
<text x="687.0" y="204.8" text-anchor="middle" font-family="Arial, Noto Sans CJK SC, Microsoft YaHei, sans-serif" font-size="18" fill="#222">MarkStrideAlign</text>
<rect x="0" y="324" width="200" height="72" rx="5" fill="#ffffff" stroke="#343a40" stroke-width="2"/>
<text x="100.0" y="366.8" text-anchor="middle" font-family="Arial, Noto Sans CJK SC, Microsoft YaHei, sans-serif" font-size="18" fill="#222">EnableStrideAlign</text>
<rect x="290" y="324" width="200" height="72" rx="5" fill="#ffffff" stroke="#343a40" stroke-width="2"/>
<text x="390.0" y="366.8" text-anchor="middle" font-family="Arial, Noto Sans CJK SC, Microsoft YaHei, sans-serif" font-size="18" fill="#222">后端 lowering</text>
<line x1="200" y1="36.0" x2="290" y2="36.0" stroke="#343a40" stroke-width="2.5" marker-end="url(#arrow)"/>
<rect x="142.4" y="10.0" width="205.2" height="23.2" fill="#fff"/>
<text x="245.0" y="27.6" text-anchor="middle" font-family="Arial, Noto Sans CJK SC, Microsoft YaHei, sans-serif" font-size="16" fill="#555">已传播的 tensor IR(c1)</text>
<line x1="490" y1="36.0" x2="580" y2="36.0" stroke="#343a40" stroke-width="2.5" marker-end="url(#arrow)"/>
<rect x="430.0" y="10.0" width="210.0" height="23.2" fill="#fff"/>
<text x="535.0" y="27.6" text-anchor="middle" font-family="Arial, Noto Sans CJK SC, Microsoft YaHei, sans-serif" font-size="16" fill="#555">1-D elementwise 体(c2)</text>
<line x1="580" y1="36.0" x2="207" y2="198.0" stroke="#343a40" stroke-width="2.5" marker-end="url(#arrow)"/>
<rect x="243.7" y="91.0" width="299.6" height="23.2" fill="#fff"/>
<text x="393.5" y="108.6" text-anchor="middle" font-family="Arial, Noto Sans CJK SC, Microsoft YaHei, sans-serif" font-size="16" fill="#555">hivm.vector_function callees(c3)</text>
<line x1="207" y1="198.0" x2="297" y2="198.0" stroke="#343a40" stroke-width="2.5" marker-end="url(#arrow)"/>
<rect x="146.6" y="172.0" width="210.8" height="23.2" fill="#fff"/>
<text x="252.0" y="189.6" text-anchor="middle" font-family="Arial, Noto Sans CJK SC, Microsoft YaHei, sans-serif" font-size="16" fill="#555">更小的 VF 调用图(c4,L1)</text>
<line x1="587" y1="198.0" x2="200" y2="360.0" stroke="#343a40" stroke-width="2.5" marker-end="url(#arrow)"/>
<rect x="289.3" y="253.0" width="208.4" height="23.2" fill="#fff"/>
<text x="393.5" y="270.6" text-anchor="middle" font-family="Arial, Noto Sans CJK SC, Microsoft YaHei, sans-serif" font-size="16" fill="#555">storage_align 标注(c5)</text>
<line x1="200" y1="360.0" x2="290" y2="360.0" stroke="#343a40" stroke-width="2.5" marker-end="url(#arrow)"/>
<rect x="122.0" y="334.0" width="246.0" height="23.2" fill="#fff"/>
<text x="245.0" y="351.6" text-anchor="middle" font-family="Arial, Noto Sans CJK SC, Microsoft YaHei, sans-serif" font-size="16" fill="#555">对齐分配 + strided 视图(c6)</text>
</svg>