<svg xmlns="http://www.w3.org/2000/svg" viewBox="0 0 1234 253" width="100%" height="100%">
<defs><marker id="arrow" viewBox="0 0 10 10" refX="9" refY="5" markerWidth="7" markerHeight="7" orient="auto-start-reverse"><path d="M 0 0 L 10 5 L 0 10 z" fill="#555"/></marker></defs>
<rect x="0" y="0" width="170" height="64" rx="5" fill="#ffffff" stroke="#343a40" stroke-width="2"/>
<text x="85.0" y="38.8" text-anchor="middle" font-family="Arial, Noto Sans CJK SC, Microsoft YaHei, sans-serif" font-size="18" fill="#222">入口检查</text>
<rect x="260" y="0" width="170" height="64" rx="5" fill="#ffffff" stroke="#343a40" stroke-width="2"/>
<text x="345.0" y="38.8" text-anchor="middle" font-family="Arial, Noto Sans CJK SC, Microsoft YaHei, sans-serif" font-size="18" fill="#222">条件一成立？</text>
<rect x="520" y="0" width="170" height="64" rx="5" fill="#ffffff" stroke="#343a40" stroke-width="2"/>
<text x="605.0" y="38.8" text-anchor="middle" font-family="Arial, Noto Sans CJK SC, Microsoft YaHei, sans-serif" font-size="18" fill="#222">条件二成立？</text>
<rect x="780" y="0" width="170" height="64" rx="5" fill="#ffffff" stroke="#343a40" stroke-width="2"/>
<text x="865.0" y="38.8" text-anchor="middle" font-family="Arial, Noto Sans CJK SC, Microsoft YaHei, sans-serif" font-size="18" fill="#222">执行主路径</text>
<rect x="1040" y="0" width="170" height="64" rx="5" fill="#ffffff" stroke="#343a40" stroke-width="2"/>
<text x="1125.0" y="38.8" text-anchor="middle" font-family="Arial, Noto Sans CJK SC, Microsoft YaHei, sans-serif" font-size="18" fill="#222">拒绝：原因一</text>
<rect x="1040" y="120" width="170" height="64" rx="5" fill="#ffffff" stroke="#343a40" stroke-width="2"/>
<text x="1125.0" y="158.8" text-anchor="middle" font-family="Arial, Noto Sans CJK SC, Microsoft YaHei, sans-serif" font-size="18" fill="#222">拒绝：原因二</text>
<polyline points="170.0,32.0 260.0,32.0" fill="none" stroke="#343a40" stroke-width="2.5" stroke-linejoin="round" marker-end="url(#arrow)"/>
<polyline points="430.0,32.0 520.0,32.0" fill="none" stroke="#343a40" stroke-width="2.5" stroke-linejoin="round" marker-end="url(#arrow)"/>
<rect x="435.0" y="6.0" width="80.0" height="23.2" fill="#fff"/>
<text x="475.0" y="23.6" text-anchor="middle" font-family="Arial, Noto Sans CJK SC, Microsoft YaHei, sans-serif" font-size="16" fill="#555">是</text>
<polyline points="430.0,32.0 475.0,32.0 475.0,229.0 995.0,229.0 995.0,32.0 1040.0,32.0" fill="none" stroke="#343a40" stroke-width="2.5" stroke-linejoin="round" marker-end="url(#arrow)"/>
<rect x="695.0" y="203.0" width="80.0" height="23.2" fill="#fff"/>
<text x="735.0" y="220.6" text-anchor="middle" font-family="Arial, Noto Sans CJK SC, Microsoft YaHei, sans-serif" font-size="16" fill="#555">否</text>
<polyline points="690.0,32.0 780.0,32.0" fill="none" stroke="#343a40" stroke-width="2.5" stroke-linejoin="round" marker-end="url(#arrow)"/>
<rect x="695.0" y="6.0" width="80.0" height="23.2" fill="#fff"/>
<text x="735.0" y="23.6" text-anchor="middle" font-family="Arial, Noto Sans CJK SC, Microsoft YaHei, sans-serif" font-size="16" fill="#555">是</text>
<polyline points="690.0,32.0 735.0,32.0 735.0,229.0 995.0,229.0 995.0,152.0 1040.0,152.0" fill="none" stroke="#343a40" stroke-width="2.5" stroke-linejoin="round" marker-end="url(#arrow)"/>
<rect x="825.0" y="203.0" width="80.0" height="23.2" fill="#fff"/>
<text x="865.0" y="220.6" text-anchor="middle" font-family="Arial, Noto Sans CJK SC, Microsoft YaHei, sans-serif" font-size="16" fill="#555">否</text>
</svg>