<svg xmlns="http://www.w3.org/2000/svg" viewBox="0 0 1456 244" width="100%" height="100%">
<defs><marker id="arrow" viewBox="0 0 10 10" refX="9" refY="5" markerWidth="7" markerHeight="7" orient="auto-start-reverse"><path d="M 0 0 L 10 5 L 0 10 z" fill="#555"/></marker></defs>
<rect x="0" y="0" width="382.5" height="65.0" rx="5" fill="#ffffff" stroke="#343a40" stroke-width="2"/>
<text x="191.2" y="28.0" text-anchor="middle" font-family="Arial, Noto Sans CJK SC, Microsoft YaHei, sans-serif" font-size="18" fill="#222">AutoVectorizeV2 + OutlineVectorFunc</text>
<text x="191.2" y="50.5" text-anchor="middle" font-family="Arial, Noto Sans CJK SC, Microsoft YaHei, sans-serif" font-size="18" fill="#222">tion（产生 VF）</text>
<rect x="472.5" y="0" width="370.8" height="65.0" rx="5" fill="#ffffff" stroke="#343a40" stroke-width="2"/>
<text x="657.9" y="28.0" text-anchor="middle" font-family="Arial, Noto Sans CJK SC, Microsoft YaHei, sans-serif" font-size="18" fill="#222">hfusion-merge-vf L1（merge-level=1</text>
<text x="657.9" y="50.5" text-anchor="middle" font-family="Arial, Noto Sans CJK SC, Microsoft YaHei, sans-serif" font-size="18" fill="#222">）</text>
<rect x="933.3" y="0" width="263.70000000000005" height="64" rx="5" fill="#ffffff" stroke="#343a40" stroke-width="2"/>
<text x="1065.2" y="38.8" text-anchor="middle" font-family="Arial, Noto Sans CJK SC, Microsoft YaHei, sans-serif" font-size="18" fill="#222">hfusion-simplify-vf-arg</text>
<rect x="0" y="155.0" width="224.10000000000002" height="64" rx="5" fill="#ffffff" stroke="#343a40" stroke-width="2"/>
<text x="112.1" y="193.8" text-anchor="middle" font-family="Arial, Noto Sans CJK SC, Microsoft YaHei, sans-serif" font-size="18" fill="#222">TensorCopyInsertion</text>
<rect x="314.1" y="155.0" width="194.4" height="64" rx="5" fill="#ffffff" stroke="#343a40" stroke-width="2"/>
<text x="411.3" y="193.8" text-anchor="middle" font-family="Arial, Noto Sans CJK SC, Microsoft YaHei, sans-serif" font-size="18" fill="#222">OneShotBufferize</text>
<rect x="598.5" y="155.0" width="370.8" height="65.0" rx="5" fill="#ffffff" stroke="#343a40" stroke-width="2"/>
<text x="783.9" y="183.0" text-anchor="middle" font-family="Arial, Noto Sans CJK SC, Microsoft YaHei, sans-serif" font-size="18" fill="#222">hfusion-merge-vf L2（merge-level=2</text>
<text x="783.9" y="205.5" text-anchor="middle" font-family="Arial, Noto Sans CJK SC, Microsoft YaHei, sans-serif" font-size="18" fill="#222">）</text>
<rect x="1059.3" y="155.0" width="372.6" height="64" rx="5" fill="#ffffff" stroke="#343a40" stroke-width="2"/>
<text x="1245.6" y="193.8" text-anchor="middle" font-family="Arial, Noto Sans CJK SC, Microsoft YaHei, sans-serif" font-size="18" fill="#222">canonicalization + ConvertToHIVMOp</text>
<polyline points="382.5,32.5 472.5,32.5" fill="none" stroke="#343a40" stroke-width="2.5" stroke-linejoin="round" marker-end="url(#arrow)"/>
<rect x="366.5" y="6.5" width="122.0" height="23.2" fill="#fff"/>
<text x="427.5" y="24.1" text-anchor="middle" font-family="Arial, Noto Sans CJK SC, Microsoft YaHei, sans-serif" font-size="16" fill="#555">tensor 级 VF</text>
<polyline points="843.3,32.5 933.3,32.0" fill="none" stroke="#343a40" stroke-width="2.5" stroke-linejoin="round" marker-end="url(#arrow)"/>
<polyline points="1197.0,32.0 1242.0,32.0 1242.0,110.0 -45.0,110.0 -45.0,187.0 0.0,187.0" fill="none" stroke="#343a40" stroke-width="2.5" stroke-linejoin="round" marker-end="url(#arrow)"/>
<polyline points="224.1,187.0 314.1,187.0" fill="none" stroke="#343a40" stroke-width="2.5" stroke-linejoin="round" marker-end="url(#arrow)"/>
<polyline points="508.5,187.0 598.5,187.5" fill="none" stroke="#343a40" stroke-width="2.5" stroke-linejoin="round" marker-end="url(#arrow)"/>
<rect x="492.5" y="161.2" width="122.0" height="23.2" fill="#fff"/>
<text x="553.5" y="178.8" text-anchor="middle" font-family="Arial, Noto Sans CJK SC, Microsoft YaHei, sans-serif" font-size="16" fill="#555">memref 级 VF</text>
<polyline points="969.3,187.5 1059.3,187.0" fill="none" stroke="#343a40" stroke-width="2.5" stroke-linejoin="round" marker-end="url(#arrow)"/>
</svg>