<svg xmlns="http://www.w3.org/2000/svg" viewBox="0 0 1306 806" width="100%" height="100%">
<defs><marker id="arrow" viewBox="0 0 10 10" refX="9" refY="5" markerWidth="7" markerHeight="7" orient="auto-start-reverse"><path d="M 0 0 L 10 5 L 0 10 z" fill="#555"/></marker></defs>
<rect x="0" y="0" width="326.70000000000005" height="64" rx="5" fill="#eef5ff" stroke="#2a76dd" stroke-width="2"/>
<text x="163.4" y="38.8" text-anchor="middle" font-family="Arial, Noto Sans CJK SC, Microsoft YaHei, sans-serif" font-size="18" fill="#222">S1 收集 VF 并按 root 调用序排列</text>
<rect x="416.70000000000005" y="0" width="366.3" height="65.0" rx="5" fill="#eef5ff" stroke="#2a76dd" stroke-width="2"/>
<text x="599.9" y="28.0" text-anchor="middle" font-family="Arial, Noto Sans CJK SC, Microsoft YaHei, sans-serif" font-size="18" fill="#222">S2 依赖建模：别名+同块 SSA+memref →</text>
<text x="599.9" y="50.5" text-anchor="middle" font-family="Arial, Noto Sans CJK SC, Microsoft YaHei, sans-serif" font-size="18" fill="#222"> allDepsClosure</text>
<rect x="873.0" y="0" width="364.5" height="64" rx="5" fill="#eef5ff" stroke="#2a76dd" stroke-width="2"/>
<text x="1055.2" y="38.8" text-anchor="middle" font-family="Arial, Noto Sans CJK SC, Microsoft YaHei, sans-serif" font-size="18" fill="#222">S3 打分 useScoreMat（初始化后只读）</text>
<rect x="0" y="155.0" width="364.5" height="64" rx="5" fill="#eef5ff" stroke="#2a76dd" stroke-width="2"/>
<text x="182.2" y="193.8" text-anchor="middle" font-family="Arial, Noto Sans CJK SC, Microsoft YaHei, sans-serif" font-size="18" fill="#222">S4 建 startVFs 候选队列（0 分优先）</text>
<rect x="454.5" y="155.0" width="361.8" height="65.0" rx="5" fill="#eef5ff" stroke="#2a76dd" stroke-width="2"/>
<text x="635.4" y="183.0" text-anchor="middle" font-family="Arial, Noto Sans CJK SC, Microsoft YaHei, sans-serif" font-size="18" fill="#222">S5 取 startVFs[scoreIdx]，检查候选</text>
<text x="635.4" y="205.5" text-anchor="middle" font-family="Arial, Noto Sans CJK SC, Microsoft YaHei, sans-serif" font-size="18" fill="#222">仍在 vfs</text>
<rect x="0" y="310.0" width="359.1" height="65.0" rx="5" fill="#eef5ff" stroke="#2a76dd" stroke-width="2"/>
<text x="179.6" y="338.0" text-anchor="middle" font-family="Arial, Noto Sans CJK SC, Microsoft YaHei, sans-serif" font-size="18" fill="#222">S6 外层预检查：调用序右邻 / L1 相关</text>
<text x="179.6" y="360.5" text-anchor="middle" font-family="Arial, Noto Sans CJK SC, Microsoft YaHei, sans-serif" font-size="18" fill="#222">对 / 链宽上限</text>
<rect x="0" y="431.0" width="262.8" height="64" rx="5" fill="#eef5ff" stroke="#2a76dd" stroke-width="2"/>
<text x="131.4" y="469.8" text-anchor="middle" font-family="Arial, Noto Sans CJK SC, Microsoft YaHei, sans-serif" font-size="18" fill="#222">S7 tryMerge 合法性闸门链</text>
<rect x="0" y="551.0" width="377.1" height="65.0" rx="5" fill="#eef5ff" stroke="#2a76dd" stroke-width="2"/>
<text x="188.6" y="579.0" text-anchor="middle" font-family="Arial, Noto Sans CJK SC, Microsoft YaHei, sans-serif" font-size="18" fill="#222">S8 物化：mergeNoBetween / mergeNoMe</text>
<text x="188.6" y="601.5" text-anchor="middle" font-family="Arial, Noto Sans CJK SC, Microsoft YaHei, sans-serif" font-size="18" fill="#222">mory</text>
<rect x="0" y="672.0" width="362.70000000000005" height="65.0" rx="5" fill="#eef5ff" stroke="#2a76dd" stroke-width="2"/>
<text x="181.4" y="700.0" text-anchor="middle" font-family="Arial, Noto Sans CJK SC, Microsoft YaHei, sans-serif" font-size="18" fill="#222">S9 patchCalls：改写调用点、同步闭包</text>
<text x="181.4" y="722.5" text-anchor="middle" font-family="Arial, Noto Sans CJK SC, Microsoft YaHei, sans-serif" font-size="18" fill="#222">、verify</text>
<rect x="906.3" y="155.0" width="368.1" height="65.0" rx="5" fill="#eef5ff" stroke="#2a76dd" stroke-width="2"/>
<text x="1090.3" y="183.0" text-anchor="middle" font-family="Arial, Noto Sans CJK SC, Microsoft YaHei, sans-serif" font-size="18" fill="#222">循环结束：toRemoveVFs 统一 erase 旧</text>
<text x="1090.3" y="205.5" text-anchor="middle" font-family="Arial, Noto Sans CJK SC, Microsoft YaHei, sans-serif" font-size="18" fill="#222"> VF 函数</text>
<polyline points="326.7,32.0 416.7,32.5" fill="none" stroke="#343a40" stroke-width="2.5" stroke-linejoin="round" marker-end="url(#arrow)"/>
<polyline points="783.0,32.5 873.0,32.0" fill="none" stroke="#343a40" stroke-width="2.5" stroke-linejoin="round" marker-end="url(#arrow)"/>
<polyline points="1237.5,32.0 1282.5,32.0 1282.5,110.0 -45.0,110.0 -45.0,187.0 0.0,187.0" fill="none" stroke="#343a40" stroke-width="2.5" stroke-linejoin="round" marker-end="url(#arrow)"/>
<rect x="577.8" y="84.0" width="82.0" height="23.2" fill="#fff"/>
<text x="618.8" y="101.6" text-anchor="middle" font-family="Arial, Noto Sans CJK SC, Microsoft YaHei, sans-serif" font-size="16" fill="#555">打分完成</text>
<polyline points="364.5,187.0 454.5,187.5" fill="none" stroke="#343a40" stroke-width="2.5" stroke-linejoin="round" marker-end="url(#arrow)"/>
<polyline points="816.3,187.5 861.3,187.5 861.3,265.0 861.3,187.5 816.3,187.5" fill="none" stroke="#343a40" stroke-width="2.5" stroke-linejoin="round" marker-end="url(#arrow)"/>
<rect x="736.7" y="200.2" width="249.2" height="23.2" fill="#fff"/>
<text x="861.3" y="217.8" text-anchor="middle" font-family="Arial, Noto Sans CJK SC, Microsoft YaHei, sans-serif" font-size="16" fill="#555">scoreIdx++（worklist 迭代）</text>
<polyline points="359.1,342.5 422.1,342.5 422.1,265.0 861.3,265.0 861.3,187.5 816.3,187.5" fill="none" stroke="#343a40" stroke-width="2.5" stroke-linejoin="round" marker-end="url(#arrow)"/>
<rect x="556.3" y="239.0" width="170.8" height="23.2" fill="#fff"/>
<text x="641.7" y="256.6" text-anchor="middle" font-family="Arial, Noto Sans CJK SC, Microsoft YaHei, sans-serif" font-size="16" fill="#555">预检查失败→下一候选</text>
<polyline points="359.1,342.5 422.1,342.5 422.1,782.0 422.1,463.0 262.8,463.0" fill="none" stroke="#343a40" stroke-width="2.5" stroke-linejoin="round" marker-end="url(#arrow)"/>
<rect x="373.1" y="536.2" width="98.0" height="23.2" fill="#fff"/>
<text x="422.1" y="553.9" text-anchor="middle" font-family="Arial, Noto Sans CJK SC, Microsoft YaHei, sans-serif" font-size="16" fill="#555">预检查通过</text>
<polyline points="262.8,463.0 422.1,463.0 422.1,782.0 422.1,583.5 377.1,583.5" fill="none" stroke="#343a40" stroke-width="2.5" stroke-linejoin="round" marker-end="url(#arrow)"/>
<rect x="381.1" y="596.5" width="82.0" height="23.2" fill="#fff"/>
<text x="422.1" y="614.1" text-anchor="middle" font-family="Arial, Noto Sans CJK SC, Microsoft YaHei, sans-serif" font-size="16" fill="#555">闸门全过</text>
<polyline points="262.8,463.0 422.1,463.0 422.1,265.0 861.3,265.0 861.3,187.5 816.3,187.5" fill="none" stroke="#343a40" stroke-width="2.5" stroke-linejoin="round" marker-end="url(#arrow)"/>
<rect x="556.3" y="239.0" width="170.8" height="23.2" fill="#fff"/>
<text x="641.7" y="256.6" text-anchor="middle" font-family="Arial, Noto Sans CJK SC, Microsoft YaHei, sans-serif" font-size="16" fill="#555">合法性拒绝→下一候选</text>
<polyline points="377.1,583.5 422.1,583.5 422.1,782.0 422.1,704.5 362.7,704.5" fill="none" stroke="#343a40" stroke-width="2.5" stroke-linejoin="round" marker-end="url(#arrow)"/>
<polyline points="362.7,704.5 422.1,704.5 422.1,265.0 861.3,265.0 861.3,187.5 816.3,187.5" fill="none" stroke="#343a40" stroke-width="2.5" stroke-linejoin="round" marker-end="url(#arrow)"/>
<rect x="266.3" y="458.8" width="311.6" height="23.2" fill="#fff"/>
<text x="422.1" y="476.4" text-anchor="middle" font-family="Arial, Noto Sans CJK SC, Microsoft YaHei, sans-serif" font-size="16" fill="#555">merged 追加 startVFs 尾部，稍后再入</text>
<polyline points="816.3,187.5 906.3,187.5" fill="none" stroke="#343a40" stroke-width="2.5" stroke-linejoin="round" marker-end="url(#arrow)"/>
<rect x="796.7" y="161.5" width="129.2" height="23.2" fill="#fff"/>
<text x="861.3" y="179.1" text-anchor="middle" font-family="Arial, Noto Sans CJK SC, Microsoft YaHei, sans-serif" font-size="16" fill="#555">worklist 耗尽</text>
</svg>